<svg width="500" height="120" viewBox="0 0 500 120" fill="none" xmlns="http://www.w3.org/2000/svg">
<rect width="500" height="120"/>
<g clip-path="url(#clip0_6_26)">
<path d="M112.938 81.5076L76 81.4687L99.0365 40.7023H76V26.7892H121.615L98.578 67.5557H121.615L112.935 81.5076H112.938Z" fill="#F29525"/>
<path d="M160.628 98.9768H115.013L138.05 58.2103H115.013L123.04 44.1611L160.628 44.2972L137.591 85.0637H160.628V98.9768Z" fill="#EA6A13"/>
<path d="M232.764 71.1001C232.764 75.3954 232.03 79.3172 230.569 82.8655C229.104 86.4138 227.111 89.4563 224.593 91.9969C222.071 94.5375 219.118 96.5062 215.73 97.9029C212.342 99.2997 208.706 100 204.824 100C200.943 100 197.356 99.2841 193.968 97.8524C190.58 96.4206 187.616 94.4247 185.079 91.8685C182.541 89.3123 180.54 86.2659 179.076 82.7371C177.611 79.2082 176.88 75.3292 176.88 71.1001V22.4044H190.876V47.9778C191.625 47.0246 192.535 46.1725 193.607 45.4216C194.679 44.6707 195.837 44.0599 197.081 43.5814C198.324 43.1028 199.61 42.7371 200.939 42.4803C202.268 42.2235 203.561 42.0951 204.82 42.0951C208.702 42.0951 212.338 42.8188 215.727 44.27C219.115 45.7212 222.067 47.7405 224.589 50.3317C227.107 52.9229 229.1 55.9848 230.565 59.5137C232.03 63.0425 232.76 66.9059 232.76 71.1001H232.764ZM218.718 71.1001C218.718 68.9874 218.353 67.0149 217.619 65.194C216.884 63.3693 215.89 61.7936 214.631 60.463C213.372 59.1324 211.899 58.0936 210.213 57.3427C208.527 56.5918 206.732 56.2183 204.824 56.2183C202.916 56.2183 201.121 56.6346 199.435 57.4711C197.749 58.3076 196.276 59.4164 195.017 60.7976C193.759 62.1788 192.772 63.7662 192.053 65.5559C191.338 67.3456 190.98 69.1975 190.98 71.104C190.98 73.2205 191.338 75.1775 192.053 76.9867C192.768 78.7958 193.755 80.3638 195.017 81.6944C196.276 83.025 197.749 84.0716 199.435 84.8419C201.121 85.6084 202.916 85.9936 204.824 85.9936C206.732 85.9936 208.527 85.6084 210.213 84.8419C211.899 84.0755 213.372 83.025 214.631 81.6944C215.89 80.3638 216.888 78.7958 217.619 76.9867C218.349 75.1814 218.718 73.2205 218.718 71.104V71.1001Z" fill="#212121"/>
<path d="M251.476 98.9768H237.43V22.4044H251.476V98.9768Z" fill="#212121"/>
<path d="M312.022 98.9768H308.65L303.233 91.4561C301.905 92.6505 300.502 93.7671 299.018 94.806C297.537 95.8448 295.979 96.7513 294.344 97.5178C292.708 98.2842 291.029 98.8912 289.312 99.3347C287.591 99.7782 285.846 100 284.074 100C280.224 100 276.607 99.3503 273.219 98.0547C269.831 96.7591 266.866 94.876 264.329 92.4015C261.792 89.9309 259.791 86.904 258.326 83.3207C256.861 79.7413 256.131 75.6638 256.131 71.0962C256.131 66.832 256.861 62.9219 258.326 59.358C259.791 55.7942 261.792 52.7322 264.329 50.176C266.866 47.6199 269.827 45.6317 273.219 44.2155C276.607 42.7993 280.224 42.0912 284.074 42.0912C285.846 42.0912 287.599 42.313 289.335 42.7565C291.072 43.2001 292.758 43.8148 294.394 44.5968C296.03 45.3827 297.588 46.3009 299.068 47.3592C300.549 48.4175 301.936 49.5574 303.229 50.7869L308.646 44.2895H312.018V98.969L312.022 98.9768ZM297.973 71.1001C297.973 69.1898 297.607 67.3417 296.873 65.552C296.139 63.7623 295.144 62.1749 293.885 60.7937C292.626 59.4125 291.154 58.3037 289.467 57.4672C287.781 56.6307 285.986 56.2144 284.078 56.2144C282.171 56.2144 280.376 56.5373 278.689 57.187C277.003 57.8368 275.538 58.79 274.295 60.0506C273.052 61.3112 272.072 62.8713 271.358 64.7311C270.643 66.5908 270.285 68.7112 270.285 71.1001C270.285 73.489 270.643 75.6094 271.358 77.4691C272.072 79.3289 273.052 80.889 274.295 82.1496C275.538 83.4102 277.003 84.3673 278.689 85.0131C280.376 85.6629 282.171 85.9858 284.078 85.9858C285.986 85.9858 287.781 85.5695 289.467 84.733C291.154 83.8965 292.626 82.7877 293.885 81.4065C295.144 80.0253 296.142 78.4379 296.873 76.6482C297.603 74.8585 297.973 73.0104 297.973 71.1001Z" fill="#212121"/>
<path d="M424.718 29.3104C424.718 30.606 424.469 31.816 423.976 32.9404C423.482 34.0648 422.81 35.0452 421.959 35.8817C421.108 36.7182 420.11 37.3835 418.971 37.8776C417.829 38.3718 416.613 38.6208 415.319 38.6208C414.025 38.6208 412.809 38.3756 411.667 37.8776C410.525 37.3835 409.538 36.7182 408.702 35.8817C407.867 35.0452 407.203 34.0648 406.709 32.9404C406.216 31.816 405.967 30.606 405.967 29.3104C405.967 28.0148 406.212 26.8476 406.709 25.7037C407.203 24.5599 407.867 23.5716 408.702 22.7351C409.538 21.8986 410.525 21.2333 411.667 20.7392C412.809 20.2451 414.025 19.9961 415.319 19.9961C416.613 19.9961 417.829 20.2451 418.971 20.7392C420.114 21.2333 421.108 21.8986 421.959 22.7351C422.81 23.5716 423.482 24.5599 423.976 25.7037C424.469 26.8476 424.718 28.0498 424.718 29.3104ZM422.317 98.9768H408.271V44.1961H422.317V98.9768Z" fill="#212121"/>
<path d="M353.619 81.5076L316.681 81.4687L339.717 40.7023H316.681V26.7892H362.295L339.259 67.5557H362.295L353.615 81.5076H353.619Z" fill="#212121"/>
<path d="M401.308 98.9768H355.694L378.73 58.2103H355.694L363.721 44.1611L401.308 44.2972L378.272 85.0637H401.308V98.9768Z" fill="#212121"/>
</g>
<defs>
<clipPath id="clip0_6_26">
<rect width="348.718" height="80" fill="white" transform="translate(76 20)"/>
</clipPath>
</defs>
</svg>
