<svg width="1600" height="600" viewBox="0 0 1600 600" fill="none" xmlns="http://www.w3.org/2000/svg">
<rect width="1600" height="600"/>
<path d="M573.531 375.48C573.191 379.99 572.661 384.54 572.561 389.09C572.491 392.17 571.451 393.46 568.241 393.43C557.441 393.31 546.641 393.29 535.841 393.44C532.391 393.49 531.261 392.13 531.401 388.84C531.581 384.82 531.441 380.78 531.441 376.74C531.441 319.99 531.441 263.25 531.441 206.5C531.441 200.31 531.461 200.29 537.701 200.29C550.521 200.28 563.331 200.43 576.151 200.2C580.451 200.12 581.961 201.44 581.921 205.84C581.771 222.69 581.941 239.54 581.991 256.39C581.991 257.96 581.991 259.53 581.991 261.51C582.821 261.25 583.391 261.23 583.751 260.94C600.131 247.72 618.721 246.33 638.111 251.54C670.051 260.14 687.031 289.06 688.341 318.18C689.221 337.86 684.781 355.91 672.541 371.65C653.391 396.27 616.761 404.2 590.081 389.05C584.091 385.65 579.241 380.24 573.531 375.47V375.48ZM638.971 323.91C638.821 320.68 638.881 318.65 638.601 316.66C637.261 306.86 633.021 298.77 623.061 295.8C613.501 292.95 604.291 294.1 596.721 301.71C587.391 311.08 586.391 331.5 594.811 341.68C602.051 350.43 611.461 352.84 621.971 350.2C631.271 347.86 636.061 340.74 638.041 331.69C638.681 328.76 638.771 325.72 638.971 323.92V323.91Z" fill="#E5E1DF"/>
<path d="M905.461 382.39C887.521 397.24 867.451 399.13 846.331 394.68C830.301 391.3 816.941 383.1 806.711 370.23C785.591 343.67 785.521 302.43 806.351 276.19C814.231 266.26 823.961 258.85 835.801 254.35C847.531 249.9 859.611 248.11 872.211 249.31C884.931 250.52 895.981 255.38 906.171 264.04C906.571 260.61 906.941 257.96 907.161 255.3C907.361 252.97 908.581 252.08 910.841 252.09C921.921 252.13 933.011 252.13 944.091 252.09C946.691 252.09 947.671 253.3 947.631 255.79C947.571 260.54 947.631 265.29 947.631 270.04C947.631 308.91 947.631 347.77 947.631 386.64C947.631 391.133 945.321 393.383 940.701 393.39C930.911 393.39 921.121 393.19 911.341 393.48C906.931 393.61 905.261 392.07 905.681 387.79C905.831 386.28 905.581 384.73 905.471 382.39H905.461ZM868.751 294.63C851.651 294.51 840.401 305.48 840.321 322.36C840.241 339.24 852.051 351.38 868.441 351.26C884.761 351.15 896.971 339.17 896.871 322.89C896.771 305.93 884.841 294.05 868.741 294.63H868.751Z" fill="#E5E1DF"/>
<path d="M1024.83 356.62C1038.67 356.62 1051.32 356.62 1063.97 356.62C1072.05 356.62 1076.09 360.597 1076.09 368.55C1076.09 375.32 1075.97 382.09 1076.13 388.85C1076.21 392.12 1075.17 393.46 1071.71 393.45C1037.59 393.36 1003.47 393.37 969.351 393.44C966.261 393.44 964.921 392.45 964.981 389.22C965.111 381.16 964.881 373.09 965.131 365.03C965.191 363.05 966.141 360.84 967.311 359.17C982.791 337.14 998.381 315.19 1013.93 293.22C1014.75 292.07 1015.51 290.88 1016.81 288.95C1014.5 288.76 1012.89 288.51 1011.29 288.51C997.761 288.48 984.221 288.39 970.691 288.55C966.521 288.6 964.771 287.35 964.931 282.87C965.241 274.24 965.121 265.59 964.971 256.96C964.911 253.57 965.871 252.03 969.581 252.04C1003.84 252.14 1038.11 252.13 1072.38 252.04C1075.86 252.04 1076.88 253.49 1076.83 256.71C1076.71 264.34 1077.02 271.98 1076.66 279.6C1076.54 282.13 1075.41 284.94 1073.93 287.04C1058.6 308.82 1043.09 330.47 1027.65 352.17C1026.85 353.3 1026.16 354.51 1024.84 356.61L1024.83 356.62Z" fill="#E5E1DF"/>
<path d="M1146.26 288.49C1139.16 288.49 1133.43 288.49 1127.7 288.49C1118.2 288.49 1108.69 288.41 1099.19 288.52C1095.58 288.56 1094.03 287.34 1094.12 283.49C1094.33 274.57 1094.31 265.63 1094.12 256.71C1094.05 253.06 1095.52 252.02 1098.98 252.03C1133.1 252.11 1167.22 252.11 1201.34 252.03C1204.62 252.03 1206.05 253.08 1205.99 256.49C1205.85 264.26 1206.15 272.05 1205.82 279.81C1205.72 282.21 1204.62 284.86 1203.21 286.86C1187.87 308.63 1172.37 330.29 1156.92 351.99C1156.1 353.14 1155.37 354.35 1154.12 356.26C1156.27 356.4 1157.75 356.58 1159.23 356.58C1172.91 356.6 1186.59 356.69 1200.26 356.53C1203.92 356.49 1205.42 357.51 1205.32 361.4C1205.09 370.61 1205.17 379.83 1205.29 389.04C1205.33 392.13 1204.31 393.41 1201.08 393.4C1166.81 393.33 1132.55 393.34 1098.28 393.39C1095.38 393.39 1094.1 392.4 1094.14 389.39C1094.25 381.18 1094.03 372.97 1094.28 364.77C1094.34 362.8 1095.41 360.63 1096.59 358.96C1111.93 337.18 1127.37 315.48 1142.77 293.76C1143.73 292.4 1144.6 290.98 1146.23 288.47L1146.26 288.49Z" fill="#E5E1DF"/>
<path d="M1368.47 252.44C1367.58 254.59 1367.03 256.17 1366.29 257.65C1344.46 301.29 1322.57 344.91 1300.85 388.6C1299.06 392.21 1296.93 393.56 1292.9 393.49C1279.81 393.24 1266.7 393.41 1253.6 393.39C1252.05 393.39 1250.5 393.25 1248.28 393.14C1249.1 391.08 1249.61 389.49 1250.34 388.01C1256.39 375.75 1262.4 363.46 1268.62 351.28C1270.02 348.53 1270 346.43 1268.45 343.74C1252.08 315.46 1235.84 287.11 1219.58 258.77C1218.53 256.95 1217.64 255.04 1216.37 252.59C1218.25 252.37 1219.46 252.11 1220.67 252.11C1236.36 252.08 1252.05 252.16 1267.74 252.03C1270.9 252 1272.71 253.09 1274.12 255.93C1280.06 267.92 1286.19 279.83 1292.26 291.76C1292.95 293.11 1293.73 294.41 1294.87 296.44C1295.93 294.49 1296.66 293.31 1297.24 292.07C1302.65 280.3 1308.14 268.57 1313.35 256.71C1314.83 253.33 1316.74 251.97 1320.49 252.03C1334.74 252.23 1348.99 252.1 1363.24 252.12C1364.76 252.12 1366.28 252.31 1368.47 252.46V252.44Z" fill="#E5E1DF"/>
<path d="M756.441 266.48C756.441 286.06 756.441 305.63 756.461 325.21C756.461 327.22 756.501 329.26 756.841 331.23C758.511 340.96 763.871 345.66 773.821 346.29C778.208 346.57 780.408 348.893 780.421 353.26C780.431 365.35 780.441 377.44 780.421 389.53C780.411 394.84 780.141 395.09 774.731 395.02C763.441 394.88 752.321 393.67 741.711 389.52C718.801 380.55 706.691 363.09 706.221 339.14C705.341 294.39 705.971 249.61 705.881 204.84C705.881 201.5 707.041 200.23 710.401 200.26C724.221 200.37 738.031 200.38 751.851 200.25C755.511 200.21 756.521 201.72 756.501 205.15C756.401 225.59 756.451 246.03 756.451 266.47L756.441 266.48Z" fill="#E5E1DF"/>
<path d="M302.701 314.46C320.351 289.65 338.081 264.9 355.611 240C357.301 237.59 358.591 234.39 358.731 231.5C359.141 222.79 358.781 214.06 358.921 205.34C358.981 201.66 357.821 199.99 353.841 200C314.671 200.09 275.501 200.1 236.331 200C232.091 199.99 230.991 201.74 231.061 205.62C231.231 215.49 231.371 225.38 231.011 235.24C230.831 240.36 232.831 241.79 237.591 241.73C253.061 241.55 268.531 241.65 284.001 241.69C285.831 241.69 287.671 241.97 290.311 242.19C288.831 244.39 287.951 245.75 287.021 247.07C269.241 272.19 251.421 297.28 233.721 322.46C232.381 324.36 231.291 326.89 231.221 329.15C230.941 338.36 231.211 347.58 231.051 356.8C230.991 360.49 232.511 361.63 236.051 361.62C260.821 361.57 285.601 361.56 310.381 361.58L339.551 319.53H299.481C301.001 317.12 301.781 315.74 302.691 314.45L302.701 314.46Z" fill="#F29525"/>
<path d="M467.071 243.47C467.141 239.56 465.501 238.36 461.761 238.37C435.491 238.43 409.221 238.43 382.951 238.41L354.081 280.03C361.911 280.01 369.741 280.03 377.571 280.03C384.121 280.03 390.671 280.03 398.791 280.03C396.921 282.89 395.931 284.52 394.831 286.07C377.221 310.91 359.571 335.72 342.041 360.61C340.691 362.52 339.471 365 339.401 367.26C339.111 376.63 339.361 386.02 339.241 395.4C339.201 398.85 340.651 399.98 343.971 399.98C383.141 399.92 422.311 399.91 461.481 399.99C465.181 399.99 466.341 398.53 466.301 395C466.161 384.47 466.081 373.93 466.341 363.4C466.451 358.95 464.741 357.78 460.551 357.83C444.921 358.01 429.281 357.91 413.651 357.89C411.961 357.89 410.271 357.68 407.811 357.52C409.231 355.34 410.071 353.95 411.011 352.63C428.671 327.83 446.381 303.06 463.921 278.18C465.531 275.9 466.781 272.86 466.901 270.12C467.271 261.25 466.931 252.35 467.091 243.46L467.071 243.47Z" fill="#EA6A13"/>
</svg>
