<svg width="500" height="120" viewBox="0 0 500 120" fill="none" xmlns="http://www.w3.org/2000/svg">
<rect width="500" height="120"/>
<path d="M165.074 87.805C164.947 89.4963 164.748 91.2025 164.71 92.9088C164.684 94.0638 164.294 94.5475 163.09 94.5363C159.04 94.4913 154.99 94.4838 150.94 94.54C149.647 94.5588 149.223 94.0488 149.275 92.815C149.343 91.3075 149.29 89.7925 149.29 88.2775C149.29 66.9963 149.29 45.7188 149.29 24.4375C149.29 22.1163 149.298 22.1088 151.638 22.1088C156.445 22.105 161.249 22.1613 166.057 22.075C167.669 22.045 168.235 22.54 168.22 24.19C168.164 30.5088 168.228 36.8275 168.247 43.1463C168.247 43.735 168.247 44.3238 168.247 45.0663C168.558 44.9688 168.772 44.9613 168.907 44.8525C175.049 39.895 182.02 39.3738 189.292 41.3275C201.269 44.5525 207.637 55.3975 208.128 66.3175C208.458 73.6975 206.793 80.4663 202.203 86.3688C195.022 95.6013 181.285 98.575 171.28 92.8938C169.034 91.6188 167.215 89.59 165.074 87.8013V87.805ZM189.614 68.4663C189.558 67.255 189.58 66.4938 189.475 65.7475C188.973 62.0725 187.383 59.0388 183.648 57.925C180.063 56.8563 176.609 57.2875 173.77 60.1413C170.272 63.655 169.897 71.3125 173.054 75.13C175.769 78.4113 179.298 79.315 183.239 78.325C186.727 77.4475 188.523 74.7775 189.265 71.3838C189.505 70.285 189.539 69.145 189.614 68.47V68.4663Z" fill="#E5E1DF"/>
<path d="M289.548 90.3963C282.82 95.965 275.294 96.6738 267.374 95.005C261.363 93.7375 256.353 90.6625 252.517 85.8363C244.597 75.8763 244.57 60.4113 252.382 50.5713C255.337 46.8475 258.985 44.0688 263.425 42.3813C267.824 40.7125 272.354 40.0413 277.079 40.4913C281.849 40.945 285.993 42.7675 289.814 46.015C289.964 44.7288 290.103 43.735 290.185 42.7375C290.26 41.8638 290.718 41.53 291.565 41.5338C295.72 41.5488 299.879 41.5488 304.034 41.5338C305.009 41.5338 305.377 41.9875 305.362 42.9213C305.339 44.7025 305.362 46.4838 305.362 48.265C305.362 62.8413 305.362 77.4138 305.362 91.99C305.362 93.675 304.495 94.5188 302.763 94.5213C299.092 94.5213 295.42 94.4463 291.753 94.555C290.099 94.6038 289.473 94.0263 289.63 92.4213C289.687 91.855 289.593 91.2738 289.552 90.3963H289.548ZM275.782 57.4863C269.369 57.4413 265.15 61.555 265.12 67.885C265.09 74.215 269.519 78.7675 275.665 78.7225C281.785 78.6813 286.364 74.1888 286.327 68.0838C286.289 61.7238 281.815 57.2688 275.778 57.4863H275.782Z" fill="#E5E1DF"/>
<path d="M334.312 80.7325C339.502 80.7325 344.245 80.7325 348.989 80.7325C352.019 80.7325 353.534 82.2238 353.534 85.2063C353.534 87.745 353.489 90.2838 353.549 92.8188C353.579 94.045 353.189 94.5475 351.892 94.5438C339.097 94.51 326.302 94.5138 313.507 94.54C312.348 94.54 311.845 94.1688 311.868 92.9575C311.917 89.935 311.83 86.9088 311.924 83.8863C311.947 83.1438 312.303 82.315 312.742 81.6888C318.547 73.4275 324.393 65.1963 330.224 56.9575C330.532 56.5263 330.817 56.08 331.304 55.3563C330.438 55.285 329.834 55.1913 329.234 55.1913C324.16 55.18 319.083 55.1463 314.009 55.2063C312.445 55.225 311.789 54.7563 311.849 53.0763C311.965 49.84 311.92 46.5963 311.864 43.36C311.842 42.0888 312.202 41.5113 313.593 41.515C326.44 41.5525 339.292 41.5488 352.143 41.515C353.448 41.515 353.83 42.0588 353.812 43.2663C353.767 46.1275 353.883 48.9925 353.748 51.85C353.703 52.7988 353.279 53.8525 352.724 54.64C346.975 62.8075 341.159 70.9263 335.369 79.0638C335.069 79.4875 334.81 79.9413 334.315 80.7288L334.312 80.7325Z" fill="#E5E1DF"/>
<path d="M379.848 55.1838C377.185 55.1838 375.037 55.1838 372.888 55.1838C369.325 55.1838 365.759 55.1538 362.197 55.195C360.843 55.21 360.262 54.7525 360.295 53.3088C360.374 49.9638 360.367 46.6113 360.295 43.2663C360.269 41.8975 360.82 41.5075 362.118 41.5113C374.913 41.5413 387.708 41.5413 400.503 41.5113C401.733 41.5113 402.269 41.905 402.247 43.1838C402.194 46.0975 402.307 49.0188 402.183 51.9288C402.145 52.8288 401.733 53.8225 401.204 54.5725C395.452 62.7363 389.639 70.8588 383.845 78.9963C383.538 79.4275 383.264 79.8813 382.795 80.5975C383.602 80.65 384.157 80.7175 384.712 80.7175C389.842 80.725 394.972 80.7588 400.098 80.6988C401.47 80.6838 402.033 81.0663 401.995 82.525C401.909 85.9788 401.939 89.4363 401.984 92.89C401.999 94.0488 401.617 94.5288 400.405 94.525C387.554 94.4988 374.707 94.5025 361.855 94.5213C360.768 94.5213 360.288 94.15 360.303 93.0213C360.344 89.9425 360.262 86.8638 360.355 83.7888C360.378 83.05 360.779 82.2363 361.222 81.61C366.974 73.4425 372.764 65.305 378.539 57.16C378.899 56.65 379.225 56.1175 379.837 55.1763L379.848 55.1838Z" fill="#E5E1DF"/>
<path d="M463.177 41.665C462.843 42.4713 462.637 43.0638 462.359 43.6188C454.173 59.9838 445.964 76.3413 437.819 92.725C437.148 94.0788 436.349 94.585 434.838 94.5588C429.929 94.465 425.013 94.5288 420.1 94.5213C419.519 94.5213 418.938 94.4688 418.105 94.4275C418.413 93.655 418.604 93.0588 418.878 92.5038C421.147 87.9063 423.4 83.2975 425.733 78.73C426.258 77.6988 426.25 76.9113 425.669 75.9025C419.53 65.2975 413.44 54.6663 407.343 44.0388C406.949 43.3563 406.615 42.64 406.139 41.7213C406.844 41.6388 407.298 41.5413 407.752 41.5413C413.635 41.53 419.519 41.56 425.403 41.5113C426.588 41.5 427.267 41.9088 427.795 42.9738C430.023 47.47 432.322 51.9363 434.598 56.41C434.857 56.9163 435.149 57.4038 435.577 58.165C435.974 57.4338 436.248 56.9913 436.465 56.5263C438.494 52.1125 440.553 47.7138 442.507 43.2663C443.062 41.9988 443.778 41.4888 445.184 41.5113C450.528 41.5863 455.872 41.5375 461.215 41.545C461.785 41.545 462.355 41.6163 463.177 41.6725V41.665Z" fill="#E5E1DF"/>
<path d="M233.665 46.93C233.665 54.2725 233.665 61.6113 233.673 68.9538C233.673 69.7075 233.688 70.4725 233.815 71.2113C234.442 74.86 236.452 76.6225 240.183 76.8588C241.828 76.9638 242.653 77.835 242.658 79.4725C242.662 84.0063 242.665 88.54 242.658 93.0738C242.654 95.065 242.553 95.1588 240.524 95.1325C236.29 95.08 232.12 94.6263 228.142 93.07C219.55 89.7063 215.009 83.1588 214.833 74.1775C214.503 57.3963 214.739 40.6038 214.705 23.815C214.705 22.5625 215.14 22.0863 216.4 22.0975C221.583 22.1388 226.762 22.1425 231.944 22.0938C233.317 22.0788 233.695 22.645 233.688 23.9313C233.65 31.5963 233.669 39.2613 233.669 46.9263L233.665 46.93Z" fill="#E5E1DF"/>
<path d="M63.5129 64.9225C70.1317 55.6188 76.7804 46.3375 83.3542 37C83.9879 36.0963 84.4717 34.8963 84.5242 33.8125C84.6779 30.5463 84.5429 27.2725 84.5954 24.0025C84.6179 22.6225 84.1829 21.9963 82.6904 22C68.0017 22.0338 53.3129 22.0375 38.6242 22C37.0342 21.9963 36.6217 22.6525 36.6479 24.1075C36.7117 27.8088 36.7642 31.5175 36.6292 35.215C36.5617 37.135 37.3117 37.6713 39.0967 37.6488C44.8979 37.5813 50.6992 37.6188 56.5004 37.6338C57.1867 37.6338 57.8767 37.7388 58.8667 37.8213C58.3117 38.6463 57.9817 39.1563 57.6329 39.6513C50.9654 49.0713 44.2829 58.48 37.6454 67.9225C37.1429 68.635 36.7342 69.5838 36.7079 70.4313C36.6029 73.885 36.7042 77.3425 36.6442 80.8C36.6217 82.1838 37.1917 82.6113 38.5192 82.6075C47.8079 82.5888 57.1004 82.585 66.3929 82.5925L77.3317 66.8238H62.3054C62.8754 65.92 63.1679 65.4025 63.5092 64.9188L63.5129 64.9225Z" fill="#F29525"/>
<path d="M125.152 38.3013C125.178 36.835 124.563 36.385 123.16 36.3888C113.309 36.4113 103.458 36.4113 93.6067 36.4038L82.7804 52.0113C85.7167 52.0038 88.6529 52.0113 91.5892 52.0113C94.0454 52.0113 96.5017 52.0113 99.5467 52.0113C98.8454 53.0838 98.4742 53.695 98.0617 54.2763C91.4579 63.5913 84.8392 72.895 78.2654 82.2288C77.7592 82.945 77.3017 83.875 77.2755 84.7225C77.1667 88.2363 77.2605 91.7575 77.2155 95.275C77.2005 96.5688 77.7442 96.9925 78.9892 96.9925C93.6779 96.97 108.367 96.9663 123.055 96.9963C124.443 96.9963 124.878 96.4488 124.863 95.125C124.81 91.1763 124.78 87.2238 124.878 83.275C124.919 81.6063 124.278 81.1675 122.707 81.1863C116.845 81.2538 110.98 81.2163 105.119 81.2088C104.485 81.2088 103.852 81.13 102.929 81.07C103.462 80.2525 103.777 79.7313 104.129 79.2363C110.752 69.9363 117.393 60.6475 123.97 51.3175C124.574 50.4625 125.043 49.3225 125.088 48.295C125.227 44.9688 125.099 41.6313 125.159 38.2975L125.152 38.3013Z" fill="#EA6A13"/>
</svg>
