<svg width="600" height="225" viewBox="0 0 600 225" fill="none" xmlns="http://www.w3.org/2000/svg">
<rect width="600" height="225"/>
<path d="M215.074 140.805C214.947 142.496 214.748 144.203 214.71 145.909C214.684 147.064 214.294 147.548 213.09 147.536C209.04 147.491 204.99 147.484 200.94 147.54C199.647 147.559 199.223 147.049 199.275 145.815C199.343 144.308 199.29 142.793 199.29 141.278C199.29 119.996 199.29 98.7188 199.29 77.4375C199.29 75.1163 199.298 75.1088 201.638 75.1088C206.445 75.105 211.249 75.1613 216.057 75.075C217.669 75.045 218.235 75.54 218.22 77.19C218.164 83.5088 218.228 89.8275 218.247 96.1463C218.247 96.735 218.247 97.3238 218.247 98.0663C218.558 97.9688 218.772 97.9613 218.907 97.8525C225.049 92.895 232.02 92.3738 239.292 94.3275C251.269 97.5525 257.637 108.398 258.128 119.318C258.458 126.698 256.793 133.466 252.203 139.369C245.022 148.601 231.285 151.575 221.28 145.894C219.034 144.619 217.215 142.59 215.074 140.801V140.805ZM239.614 121.466C239.558 120.255 239.58 119.494 239.475 118.748C238.973 115.073 237.383 112.039 233.648 110.925C230.063 109.856 226.609 110.288 223.77 113.141C220.272 116.655 219.897 124.313 223.054 128.13C225.769 131.411 229.298 132.315 233.239 131.325C236.727 130.448 238.523 127.778 239.265 124.384C239.505 123.285 239.539 122.145 239.614 121.47V121.466Z" fill="#E5E1DF"/>
<path d="M339.548 143.396C332.82 148.965 325.294 149.674 317.374 148.005C311.363 146.738 306.353 143.663 302.517 138.836C294.597 128.876 294.57 113.411 302.382 103.571C305.337 99.8475 308.985 97.0688 313.425 95.3813C317.824 93.7125 322.354 93.0413 327.079 93.4913C331.849 93.945 335.993 95.7675 339.814 99.015C339.964 97.7288 340.103 96.735 340.185 95.7375C340.26 94.8638 340.718 94.53 341.565 94.5338C345.72 94.5488 349.879 94.5488 354.034 94.5338C355.009 94.5338 355.377 94.9875 355.362 95.9213C355.339 97.7025 355.362 99.4838 355.362 101.265C355.362 115.841 355.362 130.414 355.362 144.99C355.362 146.675 354.495 147.519 352.763 147.521C349.092 147.521 345.42 147.446 341.753 147.555C340.099 147.604 339.473 147.026 339.63 145.421C339.687 144.855 339.593 144.274 339.552 143.396H339.548ZM325.782 110.486C319.369 110.441 315.15 114.555 315.12 120.885C315.09 127.215 319.519 131.768 325.665 131.723C331.785 131.681 336.364 127.189 336.327 121.084C336.289 114.724 331.815 110.269 325.778 110.486H325.782Z" fill="#E5E1DF"/>
<path d="M384.312 133.733C389.502 133.733 394.245 133.733 398.989 133.733C402.019 133.733 403.534 135.224 403.534 138.206C403.534 140.745 403.489 143.284 403.549 145.819C403.579 147.045 403.189 147.548 401.892 147.544C389.097 147.51 376.302 147.514 363.507 147.54C362.348 147.54 361.845 147.169 361.868 145.958C361.917 142.935 361.83 139.909 361.924 136.886C361.947 136.144 362.303 135.315 362.742 134.689C368.547 126.428 374.393 118.196 380.224 109.958C380.532 109.526 380.817 109.08 381.304 108.356C380.438 108.285 379.834 108.191 379.234 108.191C374.16 108.18 369.083 108.146 364.009 108.206C362.445 108.225 361.789 107.756 361.849 106.076C361.965 102.84 361.92 99.5963 361.864 96.36C361.842 95.0888 362.202 94.5113 363.593 94.515C376.44 94.5525 389.292 94.5488 402.143 94.515C403.448 94.515 403.83 95.0588 403.812 96.2663C403.767 99.1275 403.883 101.993 403.748 104.85C403.703 105.799 403.279 106.853 402.724 107.64C396.975 115.808 391.159 123.926 385.369 132.064C385.069 132.488 384.81 132.941 384.315 133.729L384.312 133.733Z" fill="#E5E1DF"/>
<path d="M429.848 108.184C427.185 108.184 425.037 108.184 422.888 108.184C419.325 108.184 415.759 108.154 412.197 108.195C410.843 108.21 410.262 107.753 410.295 106.309C410.374 102.964 410.367 99.6113 410.295 96.2663C410.269 94.8975 410.82 94.5075 412.118 94.5113C424.913 94.5413 437.708 94.5413 450.503 94.5113C451.733 94.5113 452.269 94.905 452.247 96.1838C452.194 99.0975 452.307 102.019 452.183 104.929C452.145 105.829 451.733 106.823 451.204 107.573C445.452 115.736 439.639 123.859 433.845 131.996C433.538 132.428 433.264 132.881 432.795 133.598C433.602 133.65 434.157 133.718 434.712 133.718C439.842 133.725 444.972 133.759 450.098 133.699C451.47 133.684 452.033 134.066 451.995 135.525C451.909 138.979 451.939 142.436 451.984 145.89C451.999 147.049 451.617 147.529 450.405 147.525C437.554 147.499 424.707 147.503 411.855 147.521C410.768 147.521 410.288 147.15 410.303 146.021C410.344 142.943 410.262 139.864 410.355 136.789C410.378 136.05 410.779 135.236 411.222 134.61C416.974 126.443 422.764 118.305 428.539 110.16C428.899 109.65 429.225 109.118 429.837 108.176L429.848 108.184Z" fill="#E5E1DF"/>
<path d="M513.177 94.665C512.843 95.4713 512.637 96.0638 512.359 96.6188C504.173 112.984 495.964 129.341 487.819 145.725C487.148 147.079 486.349 147.585 484.838 147.559C479.929 147.465 475.013 147.529 470.1 147.521C469.519 147.521 468.938 147.469 468.105 147.428C468.413 146.655 468.604 146.059 468.878 145.504C471.147 140.906 473.4 136.298 475.733 131.73C476.258 130.699 476.25 129.911 475.669 128.903C469.53 118.298 463.44 107.666 457.343 97.0388C456.949 96.3563 456.615 95.64 456.139 94.7213C456.844 94.6388 457.298 94.5413 457.752 94.5413C463.635 94.53 469.519 94.56 475.403 94.5113C476.588 94.5 477.267 94.9088 477.795 95.9738C480.023 100.47 482.322 104.936 484.598 109.41C484.857 109.916 485.149 110.404 485.577 111.165C485.974 110.434 486.248 109.991 486.465 109.526C488.494 105.113 490.553 100.714 492.507 96.2663C493.062 94.9988 493.778 94.4888 495.184 94.5113C500.528 94.5863 505.872 94.5375 511.215 94.545C511.785 94.545 512.355 94.6163 513.177 94.6725V94.665Z" fill="#E5E1DF"/>
<path d="M283.665 99.93C283.665 107.273 283.665 114.611 283.673 121.954C283.673 122.708 283.688 123.473 283.815 124.211C284.442 127.86 286.452 129.623 290.183 129.859C291.828 129.964 292.653 130.835 292.658 132.473C292.662 137.006 292.665 141.54 292.658 146.074C292.654 148.065 292.553 148.159 290.524 148.133C286.29 148.08 282.12 147.626 278.142 146.07C269.55 142.706 265.009 136.159 264.833 127.178C264.503 110.396 264.739 93.6038 264.705 76.815C264.705 75.5625 265.14 75.0863 266.4 75.0975C271.583 75.1388 276.762 75.1425 281.944 75.0938C283.317 75.0788 283.695 75.645 283.688 76.9313C283.65 84.5963 283.669 92.2613 283.669 99.9263L283.665 99.93Z" fill="#E5E1DF"/>
<path d="M113.513 117.923C120.132 108.619 126.78 99.3375 133.354 90C133.988 89.0963 134.472 87.8963 134.524 86.8125C134.678 83.5463 134.543 80.2725 134.595 77.0025C134.618 75.6225 134.183 74.9963 132.69 75C118.002 75.0338 103.313 75.0375 88.6242 75C87.0342 74.9963 86.6217 75.6525 86.6479 77.1075C86.7117 80.8088 86.7642 84.5175 86.6292 88.215C86.5617 90.135 87.3117 90.6713 89.0967 90.6488C94.8979 90.5813 100.699 90.6188 106.5 90.6338C107.187 90.6338 107.877 90.7388 108.867 90.8213C108.312 91.6463 107.982 92.1563 107.633 92.6513C100.965 102.071 94.2829 111.48 87.6454 120.923C87.1429 121.635 86.7342 122.584 86.7079 123.431C86.6029 126.885 86.7042 130.343 86.6442 133.8C86.6217 135.184 87.1917 135.611 88.5192 135.608C97.8079 135.589 107.1 135.585 116.393 135.593L127.332 119.824H112.305C112.875 118.92 113.168 118.403 113.509 117.919L113.513 117.923Z" fill="#F29525"/>
<path d="M175.152 91.3013C175.178 89.835 174.563 89.385 173.16 89.3888C163.309 89.4113 153.458 89.4113 143.607 89.4038L132.78 105.011C135.717 105.004 138.653 105.011 141.589 105.011C144.045 105.011 146.502 105.011 149.547 105.011C148.845 106.084 148.474 106.695 148.062 107.276C141.458 116.591 134.839 125.895 128.265 135.229C127.759 135.945 127.302 136.875 127.275 137.723C127.167 141.236 127.26 144.758 127.215 148.275C127.2 149.569 127.744 149.993 128.989 149.993C143.678 149.97 158.367 149.966 173.055 149.996C174.443 149.996 174.878 149.449 174.863 148.125C174.81 144.176 174.78 140.224 174.878 136.275C174.919 134.606 174.278 134.168 172.707 134.186C166.845 134.254 160.98 134.216 155.119 134.209C154.485 134.209 153.852 134.13 152.929 134.07C153.462 133.253 153.777 132.731 154.129 132.236C160.752 122.936 167.393 113.648 173.97 104.318C174.574 103.463 175.043 102.323 175.088 101.295C175.227 97.9688 175.099 94.6313 175.159 91.2975L175.152 91.3013Z" fill="#EA6A13"/>
</svg>
