<svg width="500" height="120" viewBox="0 0 500 120" fill="none" xmlns="http://www.w3.org/2000/svg">
<rect width="500" height="120"/>
<path d="M165.449 88.805C165.322 90.4963 165.123 92.2025 165.085 93.9088C165.059 95.0638 164.669 95.5475 163.465 95.5363C159.415 95.4913 155.365 95.4838 151.315 95.54C150.022 95.5588 149.598 95.0488 149.65 93.815C149.718 92.3075 149.665 90.7925 149.665 89.2775C149.665 67.9963 149.665 46.7188 149.665 25.4375C149.665 23.1163 149.673 23.1088 152.013 23.1088C156.82 23.105 161.624 23.1613 166.432 23.075C168.044 23.045 168.61 23.54 168.595 25.19C168.539 31.5088 168.603 37.8275 168.622 44.1463C168.622 44.735 168.622 45.3238 168.622 46.0663C168.933 45.9688 169.147 45.9613 169.282 45.8525C175.424 40.895 182.395 40.3738 189.667 42.3275C201.644 45.5525 208.012 56.3975 208.503 67.3175C208.833 74.6975 207.168 81.4663 202.578 87.3688C195.397 96.6013 181.66 99.575 171.655 93.8938C169.409 92.6188 167.59 90.59 165.449 88.8013V88.805ZM189.989 69.4663C189.933 68.255 189.955 67.4938 189.85 66.7475C189.348 63.0725 187.758 60.0388 184.023 58.925C180.438 57.8563 176.984 58.2875 174.145 61.1413C170.647 64.655 170.272 72.3125 173.429 76.13C176.144 79.4113 179.673 80.315 183.614 79.325C187.102 78.4475 188.898 75.7775 189.64 72.3838C189.88 71.285 189.914 70.145 189.989 69.47V69.4663Z" fill="#212121"/>
<path d="M289.923 91.3963C283.195 96.965 275.669 97.6738 267.749 96.005C261.738 94.7375 256.728 91.6625 252.892 86.8363C244.972 76.8763 244.945 61.4113 252.757 51.5713C255.712 47.8475 259.36 45.0688 263.8 43.3813C268.199 41.7125 272.729 41.0413 277.454 41.4913C282.224 41.945 286.368 43.7675 290.189 47.015C290.339 45.7288 290.478 44.735 290.56 43.7375C290.635 42.8638 291.093 42.53 291.94 42.5338C296.095 42.5488 300.254 42.5488 304.409 42.5338C305.384 42.5338 305.752 42.9875 305.737 43.9213C305.714 45.7025 305.737 47.4838 305.737 49.265C305.737 63.8413 305.737 78.4138 305.737 92.99C305.737 94.675 304.87 95.5188 303.138 95.5213C299.467 95.5213 295.795 95.4463 292.128 95.555C290.474 95.6038 289.848 95.0263 290.005 93.4213C290.062 92.855 289.968 92.2738 289.927 91.3963H289.923ZM276.157 58.4863C269.744 58.4413 265.525 62.555 265.495 68.885C265.465 75.215 269.894 79.7675 276.04 79.7225C282.16 79.6813 286.739 75.1888 286.702 69.0838C286.664 62.7238 282.19 58.2688 276.153 58.4863H276.157Z" fill="#212121"/>
<path d="M334.687 81.7325C339.877 81.7325 344.62 81.7325 349.364 81.7325C352.394 81.7325 353.909 83.2238 353.909 86.2063C353.909 88.745 353.864 91.2838 353.924 93.8188C353.954 95.045 353.564 95.5475 352.267 95.5438C339.472 95.51 326.677 95.5138 313.882 95.54C312.723 95.54 312.22 95.1688 312.243 93.9575C312.292 90.935 312.205 87.9088 312.299 84.8863C312.322 84.1438 312.678 83.315 313.117 82.6888C318.922 74.4275 324.768 66.1963 330.599 57.9575C330.907 57.5263 331.192 57.08 331.679 56.3563C330.813 56.285 330.209 56.1913 329.609 56.1913C324.535 56.18 319.458 56.1463 314.384 56.2063C312.82 56.225 312.164 55.7563 312.224 54.0763C312.34 50.84 312.295 47.5963 312.239 44.36C312.217 43.0888 312.577 42.5113 313.968 42.515C326.815 42.5525 339.667 42.5488 352.518 42.515C353.823 42.515 354.205 43.0588 354.187 44.2663C354.142 47.1275 354.258 49.9925 354.123 52.85C354.078 53.7988 353.654 54.8525 353.099 55.64C347.35 63.8075 341.534 71.9263 335.744 80.0638C335.444 80.4875 335.185 80.9413 334.69 81.7288L334.687 81.7325Z" fill="#212121"/>
<path d="M380.223 56.1838C377.56 56.1838 375.412 56.1838 373.263 56.1838C369.7 56.1838 366.134 56.1538 362.572 56.195C361.218 56.21 360.637 55.7525 360.67 54.3088C360.749 50.9638 360.742 47.6113 360.67 44.2663C360.644 42.8975 361.195 42.5075 362.493 42.5113C375.288 42.5413 388.083 42.5413 400.878 42.5113C402.108 42.5113 402.644 42.905 402.622 44.1838C402.569 47.0975 402.682 50.0188 402.558 52.9288C402.52 53.8288 402.108 54.8225 401.579 55.5725C395.827 63.7363 390.014 71.8588 384.22 79.9963C383.913 80.4275 383.639 80.8813 383.17 81.5975C383.977 81.65 384.532 81.7175 385.087 81.7175C390.217 81.725 395.347 81.7588 400.473 81.6988C401.845 81.6838 402.408 82.0663 402.37 83.525C402.284 86.9788 402.314 90.4363 402.359 93.89C402.374 95.0488 401.992 95.5288 400.78 95.525C387.929 95.4988 375.082 95.5025 362.23 95.5213C361.143 95.5213 360.663 95.15 360.678 94.0213C360.719 90.9425 360.637 87.8638 360.73 84.7888C360.753 84.05 361.154 83.2363 361.597 82.61C367.349 74.4425 373.139 66.305 378.914 58.16C379.274 57.65 379.6 57.1175 380.212 56.1763L380.223 56.1838Z" fill="#212121"/>
<path d="M463.552 42.665C463.218 43.4713 463.012 44.0638 462.734 44.6188C454.548 60.9838 446.339 77.3413 438.194 93.725C437.523 95.0788 436.724 95.585 435.213 95.5588C430.304 95.465 425.388 95.5288 420.475 95.5213C419.894 95.5213 419.313 95.4688 418.48 95.4275C418.788 94.655 418.979 94.0588 419.253 93.5038C421.522 88.9063 423.775 84.2975 426.108 79.73C426.633 78.6988 426.625 77.9113 426.044 76.9025C419.905 66.2975 413.815 55.6663 407.718 45.0388C407.324 44.3563 406.99 43.64 406.514 42.7213C407.219 42.6388 407.673 42.5413 408.127 42.5413C414.01 42.53 419.894 42.56 425.778 42.5113C426.963 42.5 427.642 42.9088 428.17 43.9738C430.398 48.47 432.697 52.9363 434.973 57.41C435.232 57.9163 435.524 58.4038 435.952 59.165C436.349 58.4338 436.623 57.9913 436.84 57.5263C438.869 53.1125 440.928 48.7138 442.882 44.2663C443.437 42.9988 444.153 42.4888 445.559 42.5113C450.903 42.5863 456.247 42.5375 461.59 42.545C462.16 42.545 462.73 42.6163 463.552 42.6725V42.665Z" fill="#212121"/>
<path d="M234.04 47.93C234.04 55.2725 234.04 62.6113 234.048 69.9538C234.048 70.7075 234.063 71.4725 234.19 72.2113C234.817 75.86 236.827 77.6225 240.558 77.8588C242.203 77.9638 243.028 78.835 243.033 80.4725C243.037 85.0063 243.04 89.54 243.033 94.0738C243.029 96.065 242.928 96.1588 240.899 96.1325C236.665 96.08 232.495 95.6263 228.517 94.07C219.925 90.7063 215.384 84.1588 215.208 75.1775C214.878 58.3963 215.114 41.6038 215.08 24.815C215.08 23.5625 215.515 23.0863 216.775 23.0975C221.958 23.1388 227.137 23.1425 232.319 23.0938C233.692 23.0788 234.07 23.645 234.063 24.9313C234.025 32.5963 234.044 40.2613 234.044 47.9263L234.04 47.93Z" fill="#212121"/>
<path d="M63.8879 65.9225C70.5067 56.6188 77.1554 47.3375 83.7292 38C84.3629 37.0963 84.8467 35.8963 84.8992 34.8125C85.0529 31.5463 84.9179 28.2725 84.9704 25.0025C84.9929 23.6225 84.5579 22.9963 83.0654 23C68.3767 23.0338 53.6879 23.0375 38.9992 23C37.4092 22.9963 36.9967 23.6525 37.0229 25.1075C37.0867 28.8088 37.1392 32.5175 37.0042 36.215C36.9367 38.135 37.6867 38.6713 39.4717 38.6488C45.2729 38.5813 51.0742 38.6188 56.8754 38.6338C57.5617 38.6338 58.2517 38.7388 59.2417 38.8213C58.6867 39.6463 58.3567 40.1563 58.0079 40.6513C51.3404 50.0713 44.6579 59.48 38.0204 68.9225C37.5179 69.635 37.1092 70.5838 37.0829 71.4313C36.9779 74.885 37.0792 78.3425 37.0192 81.8C36.9967 83.1838 37.5667 83.6113 38.8942 83.6075C48.1829 83.5888 57.4754 83.585 66.7679 83.5925L77.7067 67.8238H62.6804C63.2504 66.92 63.5429 66.4025 63.8842 65.9188L63.8879 65.9225Z" fill="#F29525"/>
<path d="M125.527 39.3013C125.553 37.835 124.938 37.385 123.535 37.3888C113.684 37.4113 103.833 37.4113 93.9817 37.4038L83.1554 53.0113C86.0917 53.0038 89.0279 53.0113 91.9642 53.0113C94.4204 53.0113 96.8767 53.0113 99.9217 53.0113C99.2204 54.0838 98.8492 54.695 98.4367 55.2763C91.8329 64.5913 85.2142 73.895 78.6404 83.2288C78.1342 83.945 77.6767 84.875 77.6504 85.7225C77.5417 89.2363 77.6354 92.7575 77.5904 96.275C77.5754 97.5688 78.1192 97.9925 79.3642 97.9925C94.0529 97.97 108.742 97.9663 123.43 97.9963C124.818 97.9963 125.253 97.4488 125.238 96.125C125.185 92.1763 125.155 88.2238 125.253 84.275C125.294 82.6063 124.653 82.1675 123.082 82.1863C117.22 82.2538 111.355 82.2163 105.494 82.2088C104.86 82.2088 104.227 82.13 103.304 82.07C103.837 81.2525 104.152 80.7313 104.504 80.2363C111.127 70.9363 117.768 61.6475 124.345 52.3175C124.949 51.4625 125.418 50.3225 125.463 49.295C125.602 45.9688 125.474 42.6313 125.534 39.2975L125.527 39.3013Z" fill="#EA6A13"/>
</svg>
